Coordinates
nRows=4
nColumns=38

# SIMM Motion File Header:
name Coordinates
datacolumns 38
datarows 4
otherdata 1
range 1.87850000000000010000 1.88150000000000000000

Units are S.I. units (second, meters, Newtons, ...)
Angles are in degrees.

endheader
time	pelvis_tilt	pelvis_list	pelvis_rotation	pelvis_tx	pelvis_ty	pelvis_tz	hip_flexion_r	hip_adduction_r	hip_rotation_r	knee_angle_r	ankle_angle_r	subtalar_angle_r	mtp_angle_r	hip_flexion_l	hip_adduction_l	hip_rotation_l	knee_angle_l	ankle_angle_l	subtalar_angle_l	mtp_angle_l	lumbar_extension	lumbar_bending	lumbar_rotation	arm_flex_r	arm_add_r	arm_rot_r	elbow_flex_r	pro_sup_r	wrist_flex_r	wrist_dev_r	arm_flex_l	arm_add_l	arm_rot_l	elbow_flex_l	pro_sup_l	wrist_flex_l	wrist_dev_l
      1.87850000000000010000	     -1.36648284521601000000	     -3.54258307601767260000	     -1.22403311077043480000	      0.94768025531666700000	      1.05182578819469460000	     -0.31835811618768617000	     20.87280015454596300000	      8.55371779698886490000	      4.94582675281715820000	    -12.17187552122300400000	     -3.03711457071666400000	      0.00000000000000000000	      0.00000000000000000000	     -8.95957789319993840000	      1.03303626536838020000	      1.02650469752430660000	    -56.32576753659002800000	     -9.41393600812926050000	      0.00000000000000000000	      0.00000000000000000000	     -4.13238047681740640000	      6.71640397110568800000	    -10.20717595403284700000	    -40.40861872510865300000	     -8.02740112476713110000	    -11.19407058211067300000	    113.34531670740047000000	     92.62284121865730000000	      0.00000000000000000000	      0.00000000000000000000	    -17.34351798195689300000	    -13.68691043589126500000	      8.15955587363050410000	    138.66280484491898000000	     93.06426466418854200000	      0.00000000000000000000	      0.00000000000000000000
      1.87949999999999990000	     -1.33983525388801210000	     -3.57133485941912590000	     -1.22168480802900440000	      0.94758074268424552000	      1.05128325651420320000	     -0.31831493759350410000	     20.84185269525505300000	      8.61800611680980920000	      4.99829927497690290000	    -12.36681586441032500000	     -3.01942572387820050000	     -0.00000000000000000098	     -0.00000000000000000022	     -8.76364782237853030000	      0.99200119746724325000	      1.00849684961506100000	    -56.85875905570413400000	     -9.35691646522204050000	     -0.00000000000000000053	     -0.00000000000000000093	     -4.18556575395450730000	      6.76493442484669670000	    -10.17767009354422700000	    -40.27770042794367100000	     -8.07017685492466090000	    -11.14656440314399100000	    113.28514834742873000000	     92.58651923932693300000	     -0.00000000000000000010	      0.00000000000000000001	    -17.42339933229116200000	    -13.72731599045291000000	      8.11507306815495430000	    138.55658894084397000000	     93.08260315779638500000	      0.00000000000000000008	     -0.00000000000000000022
      1.88050000000000010000	     -1.31313889596521350000	     -3.59896063416316810000	     -1.22005452628867020000	      0.94747946465441213000	      1.05073111542480090000	     -0.31827036617494237000	     20.81147162096323600000	      8.68201169050761480000	      5.05494431233744470000	    -12.56822789779003100000	     -2.99988507246223750000	     -0.00000000000000000240	     -0.00000000000000000246	     -8.56631977723159470000	      0.95196655520191265000	      0.98989473854632215000	    -57.39106541259408100000	     -9.30045695513095080000	     -0.00000000000000000111	     -0.00000000000000000401	     -4.23901385289352990000	      6.81206426426911980000	    -10.14664364204340600000	    -40.14554888188484900000	     -8.11334055659541950000	    -11.09859767612318600000	    113.22390646794108000000	     92.55107435696957900000	     -0.00000000000000000029	     -0.00000000000000000025	    -17.50351478812939400000	    -13.76823110682296800000	      8.07015087388291620000	    138.44876688448761000000	     93.10140741003058900000	     -0.00000000000000000006	     -0.00000000000000000102
      1.88150000000000000000	     -1.28619419172978740000	     -3.62543261219592110000	     -1.21900589021710370000	      0.94737657097693184000	      1.05016959018858370000	     -0.31822451957875714000	     20.78133235789206200000	      8.74576063146558450000	      5.11630419413577900000	    -12.77590143428129500000	     -2.97459168272947490000	     -0.00000000000000000222	     -0.00000000000000000596	     -8.36783680665190130000	      0.91293668422126106000	      0.97081325693215736000	    -57.92258746612524300000	     -9.24435609988453600000	     -0.00000000000000000245	     -0.00000000000000000890	     -4.29291120618536670000	      6.85775642498210570000	    -10.11418402470965800000	    -40.01218013851020300000	     -8.15683162005456270000	    -11.05021275184520700000	    113.16164008114276000000	     92.51657143993712400000	     -0.00000000000000000065	     -0.00000000000000000165	    -17.58385272197107300000	    -13.80968868952631600000	      8.02480429276306850000	    138.33939511838355000000	     93.12066244225037800000	     -0.00000000000000000162	     -0.00000000000000000201
